<svg xmlns="http://www.w3.org/2000/svg" viewBox="0 0 512 512">
  <defs><linearGradient id="bg" x1="0" y1="0" x2="1" y2="1"><stop stop-color="#18a7cf"/><stop offset="1" stop-color="#07517d"/></linearGradient><linearGradient id="fish" x1="0" y1="0" x2="1" y2="1"><stop stop-color="#57ddff"/><stop offset=".32" stop-color="#5ce0b5"/><stop offset=".58" stop-color="#ffe16a"/><stop offset=".8" stop-color="#ff91bc"/><stop offset="1" stop-color="#9a7eef"/></linearGradient></defs>
  <rect width="512" height="512" rx="110" fill="url(#bg)"/>
  <circle cx="92" cy="95" r="16" fill="none" stroke="#fff" stroke-opacity=".35" stroke-width="7"/><circle cx="138" cy="58" r="8" fill="none" stroke="#fff" stroke-opacity=".3" stroke-width="5"/>
  <path d="M112 265C67 227 53 189 61 151c48 8 82 28 107 56 42-35 91-51 146-45 65 7 108 44 116 98-12 61-60 99-129 101-52 2-98-15-134-49-27 27-64 43-108 49-5-36 13-68 53-96Z" fill="url(#fish)"/>
  <circle cx="328" cy="232" r="22" fill="#fff"/><circle cx="334" cy="235" r="10" fill="#17364f"/><path d="M363 285c18 12 34 12 49 0" fill="none" stroke="#17364f" stroke-width="10" stroke-linecap="round"/>
  <g fill="#fff" fill-opacity=".65"><circle cx="187" cy="233" r="25"/><circle cx="238" cy="207" r="25"/><circle cx="239" cy="260" r="25"/><circle cx="287" cy="237" r="25"/><circle cx="194" cy="291" r="25"/><circle cx="286" cy="292" r="25"/></g>
</svg>
